Coordinates
version=1
nRows=20
nColumns=23
inDegrees=yes

Units are S.I. units (second, meters, Newtons, ...)
If the header above contains a line with 'inDegrees', this indicates whether rotational values are in degrees (yes) or radians (no).

endheader
time	pelvis_tilt	pelvis_list	pelvis_rotation	pelvis_tx	pelvis_ty	pelvis_tz	hip_flexion_r	hip_adduction_r	hip_rotation_r	knee_angle_r	knee_angle_r_beta	ankle_angle_r	subtalar_angle_r	mtp_angle_r	hip_flexion_l	hip_adduction_l	hip_rotation_l	knee_angle_l	knee_angle_l_beta	ankle_angle_l	subtalar_angle_l	mtp_angle_l
      0.00000000	     -6.31813032	     -5.88325111	     -4.27913989	      2.11286517	      0.92379435	      1.02454783	     20.90657607	      5.92013771	    -14.97789076	     46.94020296	      0.81926109	     24.24765403	     -8.86727692	      0.00000000	     31.32706603	     -9.06573611	      1.20519869	    113.44806378	      1.98004224	     -9.27360792	    -19.10457525	      0.00000000
      0.00666667	     -6.09491725	     -5.45669575	     -3.35674113	      2.11275367	      0.92627324	      1.02371766	     17.99910090	      5.05301687	    -15.67920420	     45.92012336	      0.80145735	     24.48696102	     -7.78059718	      0.00000000	     34.12212739	     -7.83926316	      2.59100573	    112.48963027	      1.96331442	     -8.61312018	    -18.34096035	      0.00000000
      0.01333333	     -5.98258838	     -4.69918432	     -2.55577142	      2.11261094	      0.92844667	      1.02292372	     15.20858474	      4.00706886	    -16.08513594	     44.76035589	      0.78121558	     24.40761233	     -7.15361906	      0.00000000	     36.77519879	     -6.22419375	      3.54707146	    111.25821467	      1.94182217	     -7.83364675	    -17.53304873	      0.00000000
      0.02000000	     -5.67974144	     -3.96054503	     -1.71546175	      2.11297222	      0.93095690	      1.02216675	     12.04423156	      2.94621851	    -16.86815849	     43.30624641	      0.75583659	     24.28711651	     -5.61477653	      0.00000000	     38.92869810	     -4.62871155	      4.34075698	    109.70913369	      1.91478560	     -7.06288225	    -17.01650940	      0.00000000
      0.02666667	     -5.49977926	     -3.00311265	     -1.00658097	      2.11357165	      0.93360238	      1.02158205	      8.98165032	      1.79759263	    -17.45823221	     41.64574236	      0.72685532	     23.62770615	     -4.35026252	      0.00000000	     40.92443030	     -2.90168028	      4.71919902	    107.77524812	      1.88103293	     -6.46937585	    -16.98403524	      0.00000000
      0.03333333	     -5.39213895	     -1.95149893	     -0.40940646	      2.11451311	      0.93653647	      1.02116148	      5.93647394	      0.63042661	    -18.02620193	     39.73583840	      0.69352121	     22.30514549	     -3.15254230	      0.00000000	     42.71634963	     -1.23079690	      4.74940675	    105.46302461	      1.84067702	     -6.02211376	    -17.39077915	      0.00000000
      0.04000000	     -5.31430465	     -0.85123781	      0.13721736	      2.11593741	      0.93990072	      1.02083578	      2.84966726	     -0.50578447	    -18.60344249	     37.54172696	      0.65522674	     20.31735807	     -2.09732379	      0.00000000	     44.25042614	      0.37551776	      4.53008473	    102.74673396	      1.79326880	     -5.72016782	    -18.24828082	      0.00000000
      0.04666667	     -5.24220952	      0.21257171	      0.59264058	      2.11786616	      0.94371257	      1.02063533	     -0.29393341	     -1.53053396	    -19.19267987	     35.06214854	      0.61194993	     17.60074887	     -0.89625313	      0.00000000	     45.50190685	      1.77543018	      4.09157917	     99.64074779	      1.73905912	     -5.53324996	    -19.48387722	      0.00000000
      0.05333333	     -5.21511096	      1.21498786	      0.96897720	      2.12029328	      0.94785974	      1.02059611	     -3.42619610	     -2.41204550	    -19.76198662	     32.32658489	      0.56420534	     14.16348174	      0.29611273	      0.00000000	     46.52117567	      2.95700076	      3.49610079	     96.17537574	      1.67857697	     -5.42245361	    -20.99317709	      0.00000000
      0.06000000	     -5.26926918	      2.16945480	      1.31258229	      2.12315264	      0.95215715	      1.02059530	     -6.46741885	     -3.19336575	    -20.37130249	     29.43615285	      0.51375779	     10.10814287	      1.48436415	      0.00000000	     47.36470251	      3.99076945	      2.79853321	     92.38495026	      1.61242156	     -5.31350271	    -22.55722426	      0.00000000
      0.06666667	     -5.41564365	      2.99408911	      1.57532188	      2.12638598	      0.95649212	      1.02073952	     -9.37175561	     -3.78519601	    -20.90437797	     26.42324922	      0.46117270	      5.47292959	      2.63280749	      0.00000000	     48.05922561	      4.74871374	      2.02042461	     88.31962368	      1.54146823	     -5.16346291	    -23.99190323	      0.00000000
      0.07333333	     -5.49539404	      3.44227970	      1.73549343	      2.12994867	      0.96105922	      1.02116325	    -12.38120069	     -3.72276621	    -20.67977352	     22.97008371	      0.40090359	      0.26162125	      2.76313725	      0.00000000	     48.44363932	      5.00069339	      1.33946763	     84.05025591	      1.46695370	     -4.89142256	    -25.16355292	      0.00000000
      0.08000000	     -5.81075503	      4.07812135	      2.00883308	      2.13365186	      0.96495362	      1.02127672	    -14.88841138	     -4.13638000	    -21.40878866	     20.19767502	      0.35251593	     -4.53860675	      4.01239934	      0.00000000	     48.86997340	      5.49370662	      0.55096887	     79.54769378	      1.38836917	     -4.61168013	    -25.99990583	      0.00000000
      0.08666667	     -6.07622599	      4.39500609	      2.19307034	      2.13738002	      0.96873571	      1.02155285	    -17.34298869	     -4.08563264	    -21.56314875	     17.39629040	      0.30362255	     -9.27505101	      4.47382173	      0.00000000	     49.04749805	      5.60778455	     -0.12131375	     74.90627507	      1.30736113	     -4.26152571	    -26.44822481	      0.00000000
      0.09333333	     -6.45474100	      4.47917204	      2.33538115	      2.14095732	      0.97198330	      1.02182124	    -19.45920940	     -3.79172961	    -21.34364859	     14.91521093	      0.26031954	    -13.67348408	      4.01476005	      0.00000000	     49.19083047	      5.48144847	     -0.71085128	     70.16720335	      1.22464873	     -3.88241206	    -26.37775476	      0.00000000
      0.10000000	     -7.10705818	      4.61825382	      2.54682034	      2.14428349	      0.97429929	      1.02190129	    -20.75762091	     -3.88753965	    -22.11726122	     13.73738874	      0.23976266	    -16.81913847	      4.40496988	      0.00000000	     49.46066913	      5.49644172	     -1.28137041	     65.29393451	      1.13959414	     -3.54825560	    -25.83770626	      0.00000000
      0.10666667	     -7.33512794	      4.39988875	      2.74917039	      2.14737724	      0.97677096	      1.02192756	    -22.42156588	     -3.38605765	    -21.95663957	     12.54868733	      0.21901591	    -19.51830524	      3.19645821	      0.00000000	     49.12684651	      5.22970022	     -1.60503015	     60.38478167	      1.05391326	     -3.20442714	    -24.83615281	      0.00000000
      0.11333333	     -7.74182244	      4.11864200	      2.96149137	      2.15006058	      0.97841100	      1.02186821	    -23.36304104	     -3.06467298	    -22.29882619	     12.59218137	      0.21977502	    -21.09388535	      2.13628465	      0.00000000	     48.87206279	      4.92883986	     -1.94435644	     55.46044969	      0.96796745	     -2.84385920	    -23.03714425	      0.00000000
      0.12000000	     -8.14212088	      3.71646231	      3.27926759	      2.15235011	      0.97943939	      1.02153359	    -23.90496744	     -2.72775862	    -22.93263350	     13.58013617	      0.23701809	    -21.78400932	      0.87159332	      0.00000000	     48.50311075	      4.68012201	     -2.09086698	     50.55191844	      0.88229742	     -2.70799305	    -20.85040677	      0.00000000
      0.12666667	     -8.31912390	      3.16091961	      3.38422194	      2.15422895	      0.98030808	      1.02142765	    -24.34045551	     -2.30951567	    -23.02046330	     15.17688857	      0.26488668	    -22.10106933	     -1.12023673	      0.00000000	     47.83479442	      4.07212100	     -2.52964202	     45.83015417	      0.79988709	     -2.25764172	    -17.54129760	      0.00000000
